<svg xmlns="http://www.w3.org/2000/svg" width="42" height="42" fill="none" class="premiere-pro-40-2025" viewBox="0 0 42 42"><path fill="#00005b" d="M34.468 0H7.532A7.53 7.53 0 0 0 0 7.532v26.936A7.53 7.53 0 0 0 7.532 42h26.936A7.53 7.53 0 0 0 42 34.468V7.532A7.53 7.53 0 0 0 34.468 0"/><path fill="#99f" d="M16.197 11.149c5.49 0 8.582 2.571 8.582 6.877 0 5.028-4.19 7.05-8.12 7.05H14v5.433H8.626V11.15zM14 15.743v4.74h2.37c1.647 0 2.803-.666 2.803-2.341 0-1.532-.983-2.399-2.688-2.399zm18.272-.578c1.185 0 2.138.145 2.572.29v3.93c-.347-.088-1.012-.145-1.56-.145-1.07 0-1.677.086-2.226.289v10.98h-5.057V16.437c1.82-.81 3.641-1.272 6.27-1.272"/></svg>