<svg xmlns="http://www.w3.org/2000/svg" xml:space="preserve" id="Layer_1" width="184.9" height="199.9" x="0" y="0" viewBox="58 193 184.9 199.9"><style id="style1" type="text/css">.st1{fill:#30957b}.st2{fill:#80bd3e}</style><g id="Layer_2" transform="translate(-10.2 -9.2)"><g id="Layer_1-2"><path id="path2" d="M161.2 322.2c.9.5 1.9.9 2.9 1.2.5 0 8.9 1.2 10.2-9.8 1.4-10.9-4-15.3-7.1-15.7-3.9-.5-4.5 1.9-4.7 3.9s3.7 9.9-.6 9.3c-5.7-.8-9.9-20.8-16.5-21.7-4-.6-5.3 4.3-5.5 7.1q0 3.6 1.2 6.9c-2-2.4-5.1-3.7-8.2-3.5-4.9 0-17.5 4.5-17.5 20.5 0 15 7.9 37.1 26.4 37.1 15.5 0 20.2-10.7 21.4-20.3.4-4.7-.4-9.4-2.2-13.7-.4-.7-.3-1.3.2-1.3M140 345c-7.9-1-12.9-15-11.9-23.5.7-5.9 5.2-8.8 8.7-8.3 6.2.8 14.6 13.5 13.3 23.3-.8 6.2-5.1 9.1-10.1 8.5" class="st1"/><path id="path3" d="M200.8 244.5c7.6.7 29.3 12.4 28.9 16.2-.5 5.3-22.3 18.2-27.5 17.7s-7.9-14.8-6.7-28.2c.3-2.4 1.6-6.1 5.3-5.7" class="st2"/><path id="path4" d="M170.1 265.9c-.7 0-4.4-8.4-10.3-7.9-6.6.6-7.9 7.3-7.4 12.1 1.4 15.7 24 25.3 29 25.3 3.5 0 8.6-7.6 8.6-25.9 0-10.3-6.3-21.1-13.6-21.1-5.1 0-7.6 4.2-7.5 8.6 0 4.4 2.3 8.9 1.2 8.9" style="fill:#f3254d"/><path id="path5" d="M191.6 321.9c4.6.5 8.7-2.7 9.2-7.3 0-.3.1-.6.1-.9.4-4.2-2.6-7.9-6.8-8.3h-.4c-3.6-.2-8.9 2.2-9.2 7.9-.5 4.3 2.7 8.2 7.1 8.6" class="st1"/><path id="path6" d="M200.8 298.9c1.7-11.1 16.1-24.9 34.9-21.5 5.9 1.1 11.2 5.8 10.3 12.4-.8 5.5-5.9 9.3-11.4 8.5-.2 0-.4-.1-.6-.1-19.8-3-27.8 6.7-31.3 6.2-2.1-.2-2.3-2.9-1.9-5.5" class="st1"/><linearGradient id="SVGID_1_" x1="160.573" x2="160.573" y1="485.921" y2="95.187" gradientTransform="matrix(1 0 0 -1 0 604)" gradientUnits="userSpaceOnUse"><stop id="stop6" offset=".03" style="stop-color:#f3254d"/><stop id="stop7" offset=".12" style="stop-color:#d2254c"/><stop id="stop8" offset=".26" style="stop-color:#a8264a"/><stop id="stop9" offset=".39" style="stop-color:#862649"/><stop id="stop10" offset=".52" style="stop-color:#6e2748"/><stop id="stop11" offset=".64" style="stop-color:#5f2747"/><stop id="stop12" offset=".73" style="stop-color:#5a2747"/></linearGradient><path id="path12" d="M250.6 314.3c-4.1 0-5.2 21.8-9.9 21.8-2.2 0 2.5-7.2 2.5-22.1 0-7-1-8.5-2.4-8.5-2.6 0-3.8 7.3-5.5 14.8-2 8.3-4 17-6.9 17-2.2 0 2.2-11.9 2.2-21.5 0-6.1-.9-9-3.1-9-3 0-3.5 7.3-5.3 15-2 8.7-4.5 18-6.8 18s.3-12.8.3-17.7c0-6.5-1.3-8.9-3.4-8.9s-3.4 4-3.9 7.4c-1.2 7.7-6.8 28.9-12.3 34.9-.4.4-.6.6-.9.6s-.4-.3-.4-1c1-16.7-6.1-25.1-10.3-25.1-3.8 0-1.8 5-2 7.8 0 16-10.9 29.9-32.1 29.9-43.1 0-69.6-30.6-77.6-48.1-.4-1-1.3-1.6-2.3-1.7-2.3 0-2.3 2.2-2.3 3.3 0 17.8 29.5 80.9 90.2 80.9 65.1 0 94.7-56.2 94.7-81.8 0-3.6-.6-6-2.5-6" style="fill:url(#SVGID_1_)"/><linearGradient id="SVGID_2_" x1="155.248" x2="155.248" y1="483.678" y2="97.612" gradientTransform="matrix(1 0 0 -1 0 604)" gradientUnits="userSpaceOnUse"><stop id="stop13" offset=".03" style="stop-color:#f3254d"/><stop id="stop14" offset=".12" style="stop-color:#d2254c"/><stop id="stop15" offset=".26" style="stop-color:#a8264a"/><stop id="stop16" offset=".39" style="stop-color:#862649"/><stop id="stop17" offset=".52" style="stop-color:#6e2748"/><stop id="stop18" offset=".64" style="stop-color:#5f2747"/><stop id="stop19" offset=".73" style="stop-color:#5a2747"/></linearGradient><path id="path19" d="M73.6 283.6c1.1-.2 2-1.1 2-2.3 0-5.2 6.5-21.9 10.6-21.9 2.7 0-5.1 6.3-5.1 23.6 0 4.5 1.3 8.6 3.7 8.6 1.8 0 2.1-2.6 2.1-3.6 0-9.2 7.6-28.4 11.8-28.4 2.5 0-3.9 7.1-3.9 21.6 0 6.1 1 11.4 3.4 11.4 1.8 0 2.3-2.1 2.3-3 0-10.7 6.8-28 10.6-28 2.5 0-2.8 7-2.8 19.9 0 4.4 1.3 9.4 3.9 9.4 2 0 2.5-2.4 2.5-3.4 0-14.3 11.8-37.3 15.2-37.3 1.1 0 .3 1.2.3 6.5 0 9.9 4.4 23.8 12.2 23.8 6.3 0 .7-5.2.7-14 0-14.6 15.9-33.6 42.4-33.6 29 0 44.5 17.9 51.5 17.9 1.6 0 2.7-.8 2.7-1.9.1-6.6-23.8-46.7-80.5-46.7-60 0-88.7 57-88.7 76.1.2 3 1.2 5.3 3.1 5.3" style="fill:url(#SVGID_2_)"/><path id="path20" d="M79.6 308.9c-.2 10.6 15.8 26.7 25.8 30.5 3.2 1.1 5.7.4 5.7-1.8s-2.8-6.7-6.5-14.7c-4.1-9.1-6.8-24.3-15.2-24.5-4.5-.2-9.6 3.5-9.8 10.5" class="st2"/></g></g></svg>