<?xml version="1.0" encoding="UTF-8" standalone="no"?>
<!-- Generator: Adobe Illustrator 19.0.1, SVG Export Plug-In . SVG Version: 6.00 Build 0)  -->

<svg
   version="1.1"
   id="Layer_1"
   x="0px"
   y="0px"
   viewBox="58 193 184.89999 199.89999"
   xml:space="preserve"
   sodipodi:docname="amara-logo (Copy).svg"
   width="184.89999"
   height="199.89999"
   inkscape:version="1.4.2 (ebf0e940d0, 2025-05-08)"
   xmlns:inkscape="http://www.inkscape.org/namespaces/inkscape"
   xmlns:sodipodi="http://sodipodi.sourceforge.net/DTD/sodipodi-0.dtd"
   xmlns="http://www.w3.org/2000/svg"
   xmlns:svg="http://www.w3.org/2000/svg"><defs
   id="defs20" /><sodipodi:namedview
   id="namedview20"
   pagecolor="#ffffff"
   bordercolor="#666666"
   borderopacity="1.0"
   inkscape:showpageshadow="2"
   inkscape:pageopacity="0.0"
   inkscape:pagecheckerboard="0"
   inkscape:deskcolor="#d1d1d1"
   inkscape:zoom="2.4797203"
   inkscape:cx="228.25155"
   inkscape:cy="98.801466"
   inkscape:window-width="1920"
   inkscape:window-height="1011"
   inkscape:window-x="0"
   inkscape:window-y="0"
   inkscape:window-maximized="1"
   inkscape:current-layer="Layer_2" />
<style
   type="text/css"
   id="style1">
	.st0{fill:#5A2747;}
	.st1{fill:#30957B;}
	.st2{fill:#80BD3E;}
	.st3{fill:#F3254D;}
	.st4{fill:url(#SVGID_1_);}
	.st5{fill:url(#SVGID_2_);}
</style>

<g
   id="Layer_2"
   transform="translate(-10.2,-9.2)">
	<g
   id="Layer_1-2">
		<path
   class="st1"
   d="m 161.2,322.2 c 0.9,0.5 1.9,0.9 2.9,1.2 0.5,0 8.9,1.2 10.2,-9.8 1.4,-10.9 -4,-15.3 -7.1,-15.7 -3.9,-0.5 -4.5,1.9 -4.7,3.9 -0.2,2 3.7,9.9 -0.6,9.3 -5.7,-0.8 -9.9,-20.8 -16.5,-21.7 -4,-0.6 -5.3,4.3 -5.5,7.1 0,2.4 0.4,4.7 1.2,6.9 -2,-2.4 -5.1,-3.7 -8.2,-3.5 -4.9,0 -17.5,4.5 -17.5,20.5 0,15 7.9,37.1 26.4,37.1 15.5,0 20.2,-10.7 21.4,-20.3 0.4,-4.7 -0.4,-9.4 -2.2,-13.7 -0.4,-0.7 -0.3,-1.3 0.2,-1.3 z M 140,345 c -7.9,-1 -12.9,-15 -11.9,-23.5 0.7,-5.9 5.2,-8.8 8.7,-8.3 6.2,0.8 14.6,13.5 13.3,23.3 -0.8,6.2 -5.1,9.1 -10.1,8.5 z"
   id="path2" />
		<path
   class="st2"
   d="m 200.8,244.5 c 7.6,0.7 29.3,12.4 28.9,16.2 -0.5,5.3 -22.3,18.2 -27.5,17.7 -5.2,-0.5 -7.9,-14.8 -6.7,-28.2 0.3,-2.4 1.6,-6.1 5.3,-5.7 z"
   id="path3" />
		<path
   class="st3"
   d="m 170.1,265.9 c -0.7,0 -4.4,-8.4 -10.3,-7.9 -6.6,0.6 -7.9,7.3 -7.4,12.1 1.4,15.7 24,25.3 29,25.3 3.5,0 8.6,-7.6 8.6,-25.9 0,-10.3 -6.3,-21.1 -13.6,-21.1 -5.1,0 -7.6,4.2 -7.5,8.6 0,4.4 2.3,8.9 1.2,8.9 z"
   id="path4" />
		<path
   class="st1"
   d="m 191.6,321.9 c 4.6,0.5 8.7,-2.7 9.2,-7.3 0,-0.3 0.1,-0.6 0.1,-0.9 0.4,-4.2 -2.6,-7.9 -6.8,-8.3 -0.1,0 -0.3,0 -0.4,0 -3.6,-0.2 -8.9,2.2 -9.2,7.9 -0.5,4.3 2.7,8.2 7.1,8.6 z"
   id="path5" />
		<path
   class="st1"
   d="m 200.8,298.9 c 1.7,-11.1 16.1,-24.9 34.9,-21.5 5.9,1.1 11.2,5.8 10.3,12.4 -0.8,5.5 -5.9,9.3 -11.4,8.5 -0.2,0 -0.4,-0.1 -0.6,-0.1 -19.8,-3 -27.8,6.7 -31.3,6.2 -2.1,-0.2 -2.3,-2.9 -1.9,-5.5 z"
   id="path6" />
		
			<linearGradient
   id="SVGID_1_"
   gradientUnits="userSpaceOnUse"
   x1="160.5732"
   y1="485.92099"
   x2="160.5732"
   y2="95.186897"
   gradientTransform="matrix(1,0,0,-1,0,604)">
			<stop
   offset="3.000000e-02"
   style="stop-color:#F3254D"
   id="stop6" />
			<stop
   offset="0.12"
   style="stop-color:#D2254C"
   id="stop7" />
			<stop
   offset="0.26"
   style="stop-color:#A8264A"
   id="stop8" />
			<stop
   offset="0.39"
   style="stop-color:#862649"
   id="stop9" />
			<stop
   offset="0.52"
   style="stop-color:#6E2748"
   id="stop10" />
			<stop
   offset="0.64"
   style="stop-color:#5F2747"
   id="stop11" />
			<stop
   offset="0.73"
   style="stop-color:#5A2747"
   id="stop12" />
		</linearGradient>
		<path
   class="st4"
   d="m 250.6,314.3 c -4.1,0 -5.2,21.8 -9.9,21.8 -2.2,0 2.5,-7.2 2.5,-22.1 0,-7 -1,-8.5 -2.4,-8.5 -2.6,0 -3.8,7.3 -5.5,14.8 -2,8.3 -4,17 -6.9,17 -2.2,0 2.2,-11.9 2.2,-21.5 0,-6.1 -0.9,-9 -3.1,-9 -3,0 -3.5,7.3 -5.3,15 -2,8.7 -4.5,18 -6.8,18 -2.3,0 0.3,-12.8 0.3,-17.7 0,-6.5 -1.3,-8.9 -3.4,-8.9 -2.1,0 -3.4,4 -3.9,7.4 -1.2,7.7 -6.8,28.9 -12.3,34.9 -0.4,0.4 -0.6,0.6 -0.9,0.6 -0.3,0 -0.4,-0.3 -0.4,-1 1,-16.7 -6.1,-25.1 -10.3,-25.1 -3.8,0 -1.8,5 -2,7.8 0,16 -10.9,29.9 -32.1,29.9 -43.1,0 -69.6,-30.6 -77.6,-48.1 -0.4,-1 -1.3,-1.6 -2.3,-1.7 -2.3,0 -2.3,2.2 -2.3,3.3 0,17.8 29.5,80.9 90.2,80.9 65.1,0 94.7,-56.2 94.7,-81.8 0,-3.6 -0.6,-6 -2.5,-6 z"
   id="path12"
   style="fill:url(#SVGID_1_)" />
		
			<linearGradient
   id="SVGID_2_"
   gradientUnits="userSpaceOnUse"
   x1="155.24831"
   y1="483.67801"
   x2="155.24831"
   y2="97.611801"
   gradientTransform="matrix(1,0,0,-1,0,604)">
			<stop
   offset="3.000000e-02"
   style="stop-color:#F3254D"
   id="stop13" />
			<stop
   offset="0.12"
   style="stop-color:#D2254C"
   id="stop14" />
			<stop
   offset="0.26"
   style="stop-color:#A8264A"
   id="stop15" />
			<stop
   offset="0.39"
   style="stop-color:#862649"
   id="stop16" />
			<stop
   offset="0.52"
   style="stop-color:#6E2748"
   id="stop17" />
			<stop
   offset="0.64"
   style="stop-color:#5F2747"
   id="stop18" />
			<stop
   offset="0.73"
   style="stop-color:#5A2747"
   id="stop19" />
		</linearGradient>
		<path
   class="st5"
   d="m 73.6,283.6 c 1.1,-0.2 2,-1.1 2,-2.3 0,-5.2 6.5,-21.9 10.6,-21.9 2.7,0 -5.1,6.3 -5.1,23.6 0,4.5 1.3,8.6 3.7,8.6 1.8,0 2.1,-2.6 2.1,-3.6 0,-9.2 7.6,-28.4 11.8,-28.4 2.5,0 -3.9,7.1 -3.9,21.6 0,6.1 1,11.4 3.4,11.4 1.8,0 2.3,-2.1 2.3,-3 0,-10.7 6.8,-28 10.6,-28 2.5,0 -2.8,7 -2.8,19.9 0,4.4 1.3,9.4 3.9,9.4 2,0 2.5,-2.4 2.5,-3.4 0,-14.3 11.8,-37.3 15.2,-37.3 1.1,0 0.3,1.2 0.3,6.5 0,9.9 4.4,23.8 12.2,23.8 6.3,0 0.7,-5.2 0.7,-14 0,-14.6 15.9,-33.6 42.4,-33.6 29,0 44.5,17.9 51.5,17.9 1.6,0 2.7,-0.8 2.7,-1.9 0.1,-6.6 -23.8,-46.7 -80.5,-46.7 -60,0 -88.7,57 -88.7,76.1 0.2,3 1.2,5.3 3.1,5.3 z"
   id="path19"
   style="fill:url(#SVGID_2_)" />
		<path
   class="st2"
   d="m 79.6,308.9 c -0.2,10.6 15.8,26.7 25.8,30.5 3.2,1.1 5.7,0.4 5.7,-1.8 0,-2.2 -2.8,-6.7 -6.5,-14.7 -4.1,-9.1 -6.8,-24.3 -15.2,-24.5 -4.5,-0.2 -9.6,3.5 -9.8,10.5 z"
   id="path20" />
	</g>
</g>
</svg>
