<svg xmlns="http://www.w3.org/2000/svg" width="42" height="42" fill="none" class="illustrator-40-2025" viewBox="0 0 42 42"><path fill="#300" d="M34.468 0H7.532A7.53 7.53 0 0 0 0 7.532v26.936A7.53 7.53 0 0 0 7.532 42h26.936A7.53 7.53 0 0 0 42 34.468V7.532A7.53 7.53 0 0 0 34.468 0"/><path fill="#ff9a00" d="M14.216 11.149h6.183l6.936 19.36H21.67l-.954-2.947h-7.253l-.953 2.947H7.078zm4.999 11.818-2.11-6.501-2.11 6.501zm8.949-10.547c0-1.387 1.07-2.283 2.688-2.283 1.589 0 2.6.925 2.6 2.283 0 1.387-1.011 2.34-2.6 2.34-1.676 0-2.688-.924-2.688-2.34m.145 3.005h5.057V30.51h-5.057z"/></svg>