<svg xmlns="http://www.w3.org/2000/svg" viewBox="0 0 150 150.2"><path fill="none" d="M0 .2h150v150H0z"/><path fill="#f05a28" d="M124.9 109.2c7.3-10.1 11.6-22.6 11.6-36v-3.6c0-.3 0-.6-.1-.9v-.6c0-.3 0-.5-.1-.8 0-.2 0-.5-.1-.7 0-.2-.1-.5-.1-.7s-.1-.5-.1-.7v-.1c-.1-.7-.2-1.5-.3-2.2 0-.1 0-.3-.1-.4-.1-.3-.1-.6-.2-1 0-.1 0-.3-.1-.4-.1-.3-.1-.7-.2-1 0-.1 0-.2-.1-.3-.1-.4-.2-.7-.2-1.1v-.1c-6.5-27.1-30.9-47.3-60-47.3-7.2 0-14.1 1.2-20.6 3.5C30.1 23.4 13 46.3 13 73.1c0 7.2 1.2 14.1 3.5 20.6 8.5 24 31.4 41.2 58.2 41.2h59.2c0-9.7-3.4-18.7-9-25.7M75.2 93.7h-.5c-11 0-20-8.6-20.6-19.5v-1.1c0-11.4 9.2-20.5 20.6-20.6 11.4 0 20.6 9.2 20.6 20.6 0 11.3-8.9 20.4-20.1 20.6"/><linearGradient id="a" x1="71.097" x2="41.356" y1="130.925" y2="49.211" gradientTransform="matrix(1 0 0 -1 0 152)" gradientUnits="userSpaceOnUse"><stop offset="0" stop-color="#ef3f3f"/><stop offset="1" stop-color="#f47623"/></linearGradient><path fill="url(#a)" d="M95.3 73.1c0-7.2-1.2-14.1-3.5-20.6C87.9 41.5 81 32 72.2 24.9c-.9-.7-1.8-1.4-2.7-2l-.1-.1c-.4-.3-.9-.6-1.3-.9-.5-.3-.9-.6-1.4-.9-.1 0-.1-.1-.2-.1-.4-.3-.8-.5-1.2-.8-.1 0-.1-.1-.2-.1-.5-.3-.9-.5-1.4-.8-.1 0-.1-.1-.2-.1-.4-.2-.8-.4-1.2-.7-.1 0-.2-.1-.3-.1-.5-.2-.9-.5-1.4-.7-.1 0-.1-.1-.2-.1l-1.2-.6c-.1-.1-.2-.1-.3-.2-.5-.2-.9-.4-1.4-.6 0 0-.1 0-.1-.1-.4-.2-.9-.4-1.3-.5-.1 0-.2-.1-.4-.1-.5-.2-1-.4-1.5-.5C30.1 23.4 13 46.3 13 73.1c0 7.2 1.2 14.1 3.5 20.6 8.5-24 31.4-41.2 58.2-41.2 11.4.1 20.6 9.3 20.6 20.6"/><linearGradient id="b" x1="41.111" x2="71.865" y1="91.181" y2="6.684" gradientTransform="matrix(1 0 0 -1 0 152)" gradientUnits="userSpaceOnUse"><stop offset="0" stop-color="#ef3f3f"/><stop offset="1" stop-color="#f47623"/></linearGradient><path fill="url(#b)" d="M54.2 74.2v-1.1c0-11.4 9.2-20.6 20.6-20.6-.9 0-1.7 0-2.6.1-1.6.1-3.2.2-4.8.4-1.5.2-3 .4-4.5.7h-.2c-1.4.3-2.9.6-4.3 1-.1 0-.2.1-.3.1-1.4.4-2.7.8-4.1 1.3-.1 0-.3.1-.4.1-1.3.5-2.6 1-3.9 1.6-.1.1-.3.1-.4.2-1.2.6-2.5 1.2-3.7 1.8-.2.1-.3.2-.5.2-1.2.6-2.3 1.3-3.5 2-.2.1-.3.2-.5.3-1.1.7-2.2 1.5-3.3 2.3-.2.1-.3.2-.5.3-1.1.8-2.1 1.6-3.1 2.5l-.4.4c-1 .9-2 1.8-2.9 2.7l-.4.4C29.8 72 28.9 73 28 74c-.1.1-.2.3-.3.4-.9 1-1.7 2.1-2.5 3.2-.1.1-.2.3-.3.4-.8 1.1-1.6 2.2-2.3 3.4-.1.1-.1.2-.2.3l-2.1 3.6c0 .1-.1.2-.1.3-.7 1.3-1.3 2.6-1.9 3.9 0 .1 0 .1-.1.2-.6 1.4-1.1 2.7-1.6 4.2 8.5 24 31.4 41.2 58.2 41.2h25.7c-23.7-8.6-45.8-34.4-46.3-60.9"/><linearGradient id="c" x1="95.311" x2="95.311" y1="42.811" y2="140.616" gradientTransform="matrix(1 0 0 -1 0 152)" gradientUnits="userSpaceOnUse"><stop offset="0" stop-color="#ef3f3f"/><stop offset="1" stop-color="#f47623"/></linearGradient><path fill="url(#c)" d="M95.3 73.1c0 11.2-9 20.3-20.1 20.6h-.5 18c13 0 24.6 6 32.1 15.5 7.3-10.1 11.6-22.6 11.6-36v-3.6c0-.3 0-.6-.1-.9v-.6c0-.3 0-.5-.1-.8 0-.2 0-.5-.1-.7 0-.2-.1-.5-.1-.7s-.1-.5-.1-.7v-.1c-.1-.7-.2-1.5-.3-2.2 0-.1 0-.3-.1-.4-.1-.3-.1-.6-.2-1 0-.1 0-.3-.1-.4-.1-.3-.1-.7-.2-1 0-.1 0-.2-.1-.3-.1-.4-.2-.7-.2-1.1v-.1c-6.5-27.1-30.9-47.3-60-47.3-7.2 0-14.1 1.2-20.6 3.5 24 8.6 41.2 31.5 41.2 58.3"/><linearGradient id="d" x1="54.163" x2="133.912" y1="47.438" y2="47.438" gradientTransform="matrix(1 0 0 -1 0 152)" gradientUnits="userSpaceOnUse"><stop offset="0" stop-color="#ef3f3f"/><stop offset="1" stop-color="#f47623"/></linearGradient><path fill="url(#d)" d="M92.7 93.7h-18c-11 0-20-8.6-20.6-19.5.6 23.7 18.2 46.8 38.9 57.5.5.3 1 .5 1.5.7l.6.3c.5.2.9.4 1.4.6.3.1.6.3.9.4.4.1.7.3 1.1.4.7.3 1.4.5 2.1.8h33.5c-.2-22.7-18.6-41.2-41.4-41.2"/></svg>