<svg xmlns="http://www.w3.org/2000/svg" width="42" height="42" fill="none" class="photoshop-40-2025" viewBox="0 0 42 42"><path fill="#001e36" d="M34.468 0H7.532A7.53 7.53 0 0 0 0 7.532v26.936A7.53 7.53 0 0 0 7.532 42h26.936A7.53 7.53 0 0 0 42 34.468V7.532A7.53 7.53 0 0 0 34.468 0"/><path fill="#31a8ff" d="M14.666 11.149c5.49 0 8.582 2.571 8.582 6.877 0 5.028-4.19 7.05-8.12 7.05H12.47v5.433H7.095V11.15zm-2.196 4.594v4.74h2.37c1.647 0 2.802-.666 2.802-2.341 0-1.532-.982-2.399-2.687-2.399zm11.87 13.813.03-4.48c1.531 1.012 3.67 1.648 5.143 1.648 1.012 0 1.474-.29 1.474-.81 0-.577-.636-.808-1.85-1.184-2.34-.694-4.912-1.647-4.912-4.71 0-3.121 2.572-4.855 6.3-4.855 1.762 0 3.207.26 4.479.81l-.03 4.276c-1.01-.607-3.004-1.156-4.305-1.156-.953 0-1.329.29-1.329.723 0 .52.462.664 1.85 1.098 2.687.809 4.94 1.676 4.94 4.825 0 3.006-2.456 5.028-6.299 5.028-2.023 0-3.93-.346-5.49-1.213"/></svg>