<?xml version="1.0" encoding="UTF-8" standalone="no"?>
<svg
   id="Layer_1"
   data-name="Layer 1"
   viewBox="0 0 53.16 61.27"
   version="1.1"
   sodipodi:docname="trados-logo.svg"
   width="53.16"
   height="61.27"
   inkscape:version="1.4.2 (ebf0e940d0, 2025-05-08)"
   xmlns:inkscape="http://www.inkscape.org/namespaces/inkscape"
   xmlns:sodipodi="http://sodipodi.sourceforge.net/DTD/sodipodi-0.dtd"
   xmlns="http://www.w3.org/2000/svg"
   xmlns:svg="http://www.w3.org/2000/svg">
  <sodipodi:namedview
     id="namedview6"
     pagecolor="#ffffff"
     bordercolor="#666666"
     borderopacity="1.0"
     inkscape:showpageshadow="2"
     inkscape:pageopacity="0.0"
     inkscape:pagecheckerboard="0"
     inkscape:deskcolor="#d1d1d1"
     inkscape:zoom="10.073864"
     inkscape:cx="26.404963"
     inkscape:cy="30.673435"
     inkscape:window-width="1920"
     inkscape:window-height="1011"
     inkscape:window-x="0"
     inkscape:window-y="0"
     inkscape:window-maximized="1"
     inkscape:current-layer="Layer_1" />
  <defs
     id="defs1">
    <style
       id="style1">
      .cls-1 {
        fill: #3e016f;
      }

      .cls-2 {
        fill: #8353fd;
      }

      .cls-3 {
        fill: #e60054;
      }
    </style>
  </defs>
  <g
     id="g6"
     transform="translate(-4.73,-4.87)">
    <path
       class="cls-2"
       d="m 38.25,44.15 c -10.85,0 -19.64,-8.79 -19.64,-19.64 0,-1.76 0.23,-3.47 0.67,-5.1 -8.38,2.24 -14.55,9.89 -14.55,18.97 0,5.63 2.37,10.71 6.17,14.29 L 24.37,66.14 37.84,52.67 c 0.14,-0.13 0.28,-0.27 0.42,-0.41 v -8.12 z"
       id="path4" />
    <path
       class="cls-3"
       d="m 38.25,4.87 c -9.08,0 -16.72,6.16 -18.97,14.54 1.62,-0.43 3.33,-0.66 5.08,-0.66 10.85,0 19.64,8.79 19.64,19.64 0,5.42 -2.2,10.33 -5.75,13.89 v 0 L 51.72,38.81 c 3.8,-3.58 6.17,-8.66 6.17,-14.29 C 57.89,13.67 49.1,4.88 38.25,4.88 Z"
       id="path5" />
    <path
       class="cls-1"
       d="m 24.37,18.74 c -1.76,0 -3.46,0.23 -5.08,0.66 -0.44,1.63 -0.67,3.34 -0.67,5.1 0,10.85 8.79,19.64 19.64,19.64 v 8.12 c 3.55,-3.55 5.75,-8.46 5.75,-13.89 0,-10.85 -8.79,-19.64 -19.64,-19.64 z"
       id="path6" />
  </g>
</svg>
