<svg xmlns="http://www.w3.org/2000/svg" width="53.16" height="61.27" data-name="Layer 1" viewBox="0 0 53.16 61.27"><path d="M38.25 44.15c-10.85 0-19.64-8.79-19.64-19.64 0-1.76.23-3.47.67-5.1C10.9 21.65 4.73 29.3 4.73 38.38c0 5.63 2.37 10.71 6.17 14.29l13.47 13.47 13.47-13.47c.14-.13.28-.27.42-.41v-8.12z" style="fill:#8353fd" transform="translate(-4.73 -4.87)"/><path d="M38.25 4.87c-9.08 0-16.72 6.16-18.97 14.54 1.62-.43 3.33-.66 5.08-.66C35.21 18.75 44 27.54 44 38.39c0 5.42-2.2 10.33-5.75 13.89l13.47-13.47c3.8-3.58 6.17-8.66 6.17-14.29 0-10.85-8.79-19.64-19.64-19.64Z" style="fill:#e60054" transform="translate(-4.73 -4.87)"/><path d="M24.37 18.74c-1.76 0-3.46.23-5.08.66-.44 1.63-.67 3.34-.67 5.1 0 10.85 8.79 19.64 19.64 19.64v8.12a19.58 19.58 0 0 0 5.75-13.89c0-10.85-8.79-19.64-19.64-19.64z" style="fill:#3e016f" transform="translate(-4.73 -4.87)"/></svg>